<svg xmlns="http://www.w3.org/2000/svg" version="1.1" xmlns:xlink="http://www.w3.org/1999/xlink" xmlns:svgjs="http://svgjs.dev/svgjs" viewBox="0 0 800 800"><circle r="10.5" cx="180" cy="247" stroke-width="2" stroke="hsl(272, 50%, 50%)" fill="none" opacity="0.64"></circle><circle r="10" cx="603" cy="192" stroke-width="2" stroke="hsl(268, 50%, 50%)" fill="none" opacity="0.74"></circle><circle r="10" cx="99" cy="437" fill="hsl(272, 50%, 50%)" opacity="0.19"></circle><circle r="6.5" cx="418" cy="514" stroke-width="2" stroke="hsl(294, 50%, 50%)" fill="none" opacity="0.60"></circle><circle r="9" cx="264" cy="197" stroke-width="2" stroke="hsl(279, 50%, 50%)" fill="none" opacity="0.41"></circle><circle r="7.5" cx="497" cy="779" fill="hsl(286, 50%, 50%)" opacity="0.79"></circle><circle r="10.5" cx="115" cy="516" fill="hsl(272, 50%, 50%)" opacity="0.46"></circle><circle r="10.5" cx="553" cy="571" fill="hsl(274, 50%, 50%)" opacity="0.37"></circle><circle r="9.5" cx="713" cy="782" stroke-width="2" stroke="hsl(264, 50%, 50%)" fill="none" opacity="0.64"></circle><circle r="10.5" cx="220" cy="267" fill="hsl(273, 50%, 50%)" opacity="0.78"></circle><circle r="11" cx="629" cy="468" stroke-width="2" stroke="hsl(266, 50%, 50%)" fill="none" opacity="0.97"></circle><circle r="9.5" cx="143" cy="174" stroke-width="2" stroke="hsl(275, 50%, 50%)" fill="none" opacity="0.84"></circle><circle r="10" cx="245" cy="523" fill="hsl(276, 50%, 50%)" opacity="0.28"></circle><circle r="11" cx="780" cy="169" fill="hsl(259, 50%, 50%)" opacity="0.75"></circle><circle r="7" cx="485" cy="702" stroke-width="2" stroke="hsl(288, 50%, 50%)" fill="none" opacity="0.32"></circle><circle r="9.5" cx="25" cy="511" fill="hsl(271, 50%, 50%)" opacity="0.45"></circle><circle r="6.5" cx="428" cy="300" fill="hsl(294, 50%, 50%)" opacity="0.37"></circle><circle r="10.5" cx="202" cy="706" fill="hsl(273, 50%, 50%)" opacity="0.62"></circle><circle r="8.5" cx="381" cy="112" fill="hsl(284, 50%, 50%)" opacity="0.42"></circle><circle r="7.5" cx="478" cy="193" fill="hsl(288, 50%, 50%)" opacity="0.97"></circle><circle r="9" cx="520" cy="613" stroke-width="2" stroke="hsl(281, 50%, 50%)" fill="none" opacity="0.70"></circle><circle r="10.5" cx="140" cy="639" stroke-width="2" stroke="hsl(272, 50%, 50%)" fill="none" opacity="0.52"></circle><circle r="10" cx="561" cy="183" stroke-width="2" stroke="hsl(273, 50%, 50%)" fill="none" opacity="0.59"></circle><circle r="6" cx="384" cy="232" stroke-width="2" stroke="hsl(294, 50%, 50%)" fill="none" opacity="0.58"></circle><circle r="13.5" cx="643" cy="162" fill="hsl(260, 50%, 50%)" opacity="0.47"></circle><circle r="9.5" cx="154" cy="715" stroke-width="2" stroke="hsl(271, 50%, 50%)" fill="none" opacity="0.66"></circle><circle r="8.5" cx="301" cy="237" fill="hsl(285, 50%, 50%)" opacity="0.39"></circle><circle r="10.5" cx="183" cy="403" fill="hsl(272, 50%, 50%)" opacity="0.93"></circle><circle r="10" cx="22" cy="593" fill="hsl(270, 50%, 50%)" opacity="0.43"></circle><circle r="10.5" cx="184" cy="298" fill="hsl(272, 50%, 50%)" opacity="0.52"></circle><circle r="11" cx="695" cy="165" stroke-width="2" stroke="hsl(260, 50%, 50%)" fill="none" opacity="0.78"></circle><circle r="8" cx="509" cy="293" fill="hsl(283, 50%, 50%)" opacity="0.28"></circle><circle r="11" cx="453" cy="65" stroke-width="2" stroke="hsl(271, 50%, 50%)" fill="none" opacity="0.13"></circle><circle r="12" cx="770" cy="96" stroke-width="2" stroke="hsl(248, 50%, 50%)" fill="none" opacity="0.39"></circle><circle r="10.5" cx="731" cy="396" fill="hsl(264, 50%, 50%)" opacity="0.78"></circle><circle r="7" cx="348" cy="307" fill="hsl(291, 50%, 50%)" opacity="0.20"></circle><circle r="12" cx="689" cy="629" stroke-width="2" stroke="hsl(265, 50%, 50%)" fill="none" opacity="0.78"></circle><circle r="9" cx="26" cy="59" stroke-width="2" stroke="hsl(274, 50%, 50%)" fill="none" opacity="0.29"></circle><circle r="7.5" cx="496" cy="457" fill="hsl(286, 50%, 50%)" opacity="0.22"></circle><circle r="11" cx="657" cy="257" stroke-width="2" stroke="hsl(265, 50%, 50%)" fill="none" opacity="0.88"></circle><circle r="10.5" cx="660" cy="437" stroke-width="2" stroke="hsl(265, 50%, 50%)" fill="none" opacity="0.66"></circle><circle r="11" cx="777" cy="380" stroke-width="2" stroke="hsl(264, 50%, 50%)" fill="none" opacity="0.31"></circle><circle r="11" cx="161" cy="501" stroke-width="2" stroke="hsl(271, 50%, 50%)" fill="none" opacity="0.43"></circle><circle r="8" cx="489" cy="655" fill="hsl(286, 50%, 50%)" opacity="0.86"></circle><circle r="11" cx="774" cy="779" stroke-width="2" stroke="hsl(264, 50%, 50%)" fill="none" opacity="0.61"></circle><circle r="12" cx="733" cy="560" fill="hsl(264, 50%, 50%)" opacity="0.14"></circle><circle r="10" cx="560" cy="525" stroke-width="2" stroke="hsl(274, 50%, 50%)" fill="none" opacity="0.28"></circle><circle r="10" cx="261" cy="427" fill="hsl(277, 50%, 50%)" opacity="0.53"></circle><circle r="10" cx="63" cy="408" stroke-width="2" stroke="hsl(272, 50%, 50%)" fill="none" opacity="0.97"></circle><circle r="9.5" cx="407" cy="68" fill="hsl(278, 50%, 50%)" opacity="0.59"></circle><circle r="11.5" cx="646" cy="659" stroke-width="2" stroke="hsl(266, 50%, 50%)" fill="none" opacity="0.45"></circle><circle r="10.5" cx="743" cy="434" fill="hsl(264, 50%, 50%)" opacity="0.92"></circle><circle r="12" cx="778" cy="634" fill="hsl(264, 50%, 50%)" opacity="0.58"></circle><circle r="8" cx="301" cy="778" stroke-width="2" stroke="hsl(285, 50%, 50%)" fill="none" opacity="0.31"></circle><circle r="9.5" cx="250" cy="475" fill="hsl(277, 50%, 50%)" opacity="0.10"></circle></svg>