<svg xmlns="http://www.w3.org/2000/svg" version="1.1" xmlns:xlink="http://www.w3.org/1999/xlink" xmlns:svgjs="http://svgjs.dev/svgjs" viewBox="0 0 800 800"><g fill="hsl(352, 100%, 76%)" transform="matrix(1,0,0,1,0,0)"><circle r="0" cx="405" cy="400" opacity="0.10"></circle><circle r="0" cx="404" cy="404" opacity="0.10"></circle><circle r="0" cx="400" cy="407" opacity="0.10"></circle><circle r="0" cx="395" cy="406" opacity="0.11"></circle><circle r="0" cx="392" cy="401" opacity="0.11"></circle><circle r="0" cx="393" cy="395" opacity="0.11"></circle><circle r="0" cx="399" cy="391" opacity="0.11"></circle><circle r="0" cx="406" cy="392" opacity="0.11"></circle><circle r="0" cx="411" cy="398" opacity="0.11"></circle><circle r="0" cx="410" cy="406" opacity="0.12"></circle><circle r="0" cx="403" cy="412" opacity="0.12"></circle><circle r="0" cx="394" cy="412" opacity="0.12"></circle><circle r="0" cx="387" cy="404" opacity="0.12"></circle><circle r="0" cx="387" cy="393" opacity="0.12"></circle><circle r="0" cx="395" cy="385" opacity="0.13"></circle><circle r="0" cx="406" cy="385" opacity="0.13"></circle><circle r="0" cx="416" cy="393" opacity="0.13"></circle><circle r="0" cx="417" cy="406" opacity="0.13"></circle><circle r="0" cx="408" cy="417" opacity="0.13"></circle><circle r="0" cx="394" cy="419" opacity="0.13"></circle><circle r="0" cx="382" cy="410" opacity="0.14"></circle><circle r="0" cx="380" cy="395" opacity="0.14"></circle><circle r="0" cx="388" cy="382" opacity="0.14"></circle><circle r="0" cx="404" cy="378" opacity="0.14"></circle><circle r="0" cx="419" cy="387" opacity="0.14"></circle><circle r="0" cx="424" cy="404" opacity="0.15"></circle><circle r="0" cx="415" cy="420" opacity="0.15"></circle><circle r="0" cx="397" cy="425" opacity="0.15"></circle><circle r="0" cx="380" cy="417" opacity="0.15"></circle><circle r="0" cx="373" cy="399" opacity="0.15"></circle><circle r="0" cx="381" cy="380" opacity="0.15"></circle><circle r="0" cx="400" cy="371" opacity="0.16"></circle><circle r="0" cx="420" cy="379" opacity="0.16"></circle><circle r="0" cx="430" cy="398" opacity="0.16"></circle><circle r="0" cx="423" cy="420" opacity="0.16"></circle><circle r="0" cx="403" cy="431" opacity="0.16"></circle><circle r="0" cx="380" cy="426" opacity="0.17"></circle><circle r="0" cx="367" cy="405" opacity="0.17"></circle><circle r="0" cx="372" cy="381" opacity="0.17"></circle><circle r="0" cx="393" cy="366" opacity="0.17"></circle><circle r="0" cx="419" cy="370" opacity="0.17"></circle><circle r="0.5" cx="435" cy="391" opacity="0.18"></circle><circle r="0.5" cx="432" cy="418" opacity="0.18"></circle><circle r="0.5" cx="411" cy="436" opacity="0.18"></circle><circle r="0.5" cx="383" cy="435" opacity="0.18"></circle><circle r="0.5" cx="363" cy="414" opacity="0.18"></circle><circle r="0.5" cx="363" cy="384" opacity="0.18"></circle><circle r="0.5" cx="384" cy="363" opacity="0.19"></circle><circle r="0.5" cx="414" cy="361" opacity="0.19"></circle><circle r="0.5" cx="438" cy="381" opacity="0.19"></circle><circle r="0.5" cx="441" cy="413" opacity="0.19"></circle><circle r="0.5" cx="421" cy="438" opacity="0.19"></circle><circle r="0.5" cx="389" cy="443" opacity="0.20"></circle><circle r="0.5" cx="362" cy="424" opacity="0.20"></circle><circle r="0.5" cx="355" cy="391" opacity="0.20"></circle><circle r="0.5" cx="373" cy="362" opacity="0.20"></circle><circle r="0.5" cx="407" cy="353" opacity="0.20"></circle><circle r="0.5" cx="438" cy="370" opacity="0.20"></circle><circle r="0.5" cx="449" cy="405" opacity="0.21"></circle><circle r="0.5" cx="433" cy="438" opacity="0.21"></circle><circle r="0.5" cx="398" cy="451" opacity="0.21"></circle><circle r="0.5" cx="363" cy="436" opacity="0.21"></circle><circle r="0.5" cx="348" cy="400" opacity="0.21"></circle><circle r="0.5" cx="362" cy="364" opacity="0.22"></circle><circle r="0.5" cx="397" cy="346" opacity="0.22"></circle><circle r="0.5" cx="435" cy="359" opacity="0.22"></circle><circle r="0.5" cx="455" cy="394" opacity="0.22"></circle><circle r="0.5" cx="444" cy="434" opacity="0.22"></circle><circle r="0.5" cx="409" cy="456" opacity="0.22"></circle><circle r="0.5" cx="367" cy="447" opacity="0.23"></circle><circle r="0.5" cx="343" cy="412" opacity="0.23"></circle><circle r="0.5" cx="350" cy="369" opacity="0.23"></circle><circle r="0.5" cx="385" cy="342" opacity="0.23"></circle><circle r="0.5" cx="429" cy="347" opacity="0.23"></circle><circle r="0.5" cx="458" cy="381" opacity="0.24"></circle><circle r="0.5" cx="456" cy="427" opacity="0.24"></circle><circle r="0.5" cx="422" cy="459" opacity="0.24"></circle><circle r="0.5" cx="375" cy="458" opacity="0.24"></circle><circle r="0.5" cx="341" cy="426" opacity="0.24"></circle><circle r="0.5" cx="339" cy="378" opacity="0.24"></circle><circle r="0.5" cx="371" cy="341" opacity="0.25"></circle><circle r="0.5" cx="420" cy="336" opacity="0.25"></circle><circle r="0.5" cx="459" cy="367" opacity="0.25"></circle><circle r="0.5" cx="466" cy="417" opacity="0.25"></circle><circle r="0.5" cx="437" cy="458" opacity="0.25"></circle><circle r="0.5" cx="386" cy="468" opacity="0.26"></circle><circle r="0.5" cx="342" cy="441" opacity="0.26"></circle><circle r="0.5" cx="330" cy="390" opacity="0.26"></circle><circle r="0.5" cx="356" cy="343" opacity="0.26"></circle><circle r="0.5" cx="407" cy="328" opacity="0.26"></circle><circle r="0.5" cx="455" cy="352" opacity="0.26"></circle><circle r="0.5" cx="474" cy="403" opacity="0.27"></circle><circle r="0.5" cx="452" cy="454" opacity="0.27"></circle><circle r="0.5" cx="400" cy="476" opacity="0.27"></circle><circle r="0.5" cx="348" cy="456" opacity="0.27"></circle><circle r="0.5" cx="323" cy="404" opacity="0.27"></circle><circle r="0.5" cx="341" cy="350" opacity="0.28"></circle><circle r="0.5" cx="392" cy="322" opacity="0.28"></circle><circle r="0.5" cx="448" cy="337" opacity="0.28"></circle><circle r="0.5" cx="479" cy="387" opacity="0.28"></circle><circle r="0.5" cx="467" cy="446" opacity="0.28"></circle><circle r="0.5" cx="417" cy="480" opacity="0.28"></circle><circle r="0.5" cx="357" cy="470" opacity="0.29"></circle><circle r="0.5" cx="320" cy="421" opacity="0.29"></circle><circle r="0.5" cx="326" cy="360" opacity="0.29"></circle><circle r="0.5" cx="374" cy="319" opacity="0.29"></circle><circle r="0.5" cx="437" cy="323" opacity="0.29"></circle><circle r="0.5" cx="481" cy="369" opacity="0.30"></circle><circle r="0.5" cx="480" cy="434" opacity="0.30"></circle><circle r="0.5" cx="435" cy="480" opacity="0.30"></circle><circle r="0.5" cx="370" cy="483" opacity="0.30"></circle><circle r="0.5" cx="320" cy="440" opacity="0.30"></circle><circle r="0.5" cx="314" cy="374" opacity="0.31"></circle><circle r="0.5" cx="355" cy="321" opacity="0.31"></circle><circle r="0.5" cx="422" cy="311" opacity="0.31"></circle><circle r="0.5" cx="478" cy="351" opacity="0.31"></circle><circle r="0.5" cx="491" cy="418" opacity="0.31"></circle><circle r="0.5" cx="454" cy="477" opacity="0.31"></circle><circle r="0.5" cx="386" cy="494" opacity="0.32"></circle><circle r="0.5" cx="325" cy="459" opacity="0.32"></circle><circle r="0.5" cx="304" cy="391" opacity="0.32"></circle><circle r="0.5" cx="336" cy="327" opacity="0.32"></circle><circle r="0.5" cx="404" cy="302" opacity="0.32"></circle><circle r="0.5" cx="471" cy="332" opacity="0.33"></circle><circle r="0.5" cx="499" cy="399" opacity="0.33"></circle><circle r="0.5" cx="473" cy="468" opacity="0.33"></circle><circle r="0.5" cx="406" cy="501" opacity="0.33"></circle><circle r="0.5" cx="334" cy="478" opacity="0.33"></circle><circle r="0.5" cx="298" cy="411" opacity="0.33"></circle><circle r="0.5" cx="318" cy="338" opacity="0.34"></circle><circle r="0.5" cx="383" cy="298" opacity="0.34"></circle><circle r="0.5" cx="459" cy="314" opacity="0.34"></circle><circle r="0.5" cx="503" cy="378" opacity="0.34"></circle><circle r="0.5" cx="490" cy="455" opacity="0.34"></circle><circle r="0.5" cx="428" cy="503" opacity="0.35"></circle><circle r="0.5" cx="349" cy="495" opacity="0.35"></circle><circle r="0.5" cx="297" cy="433" opacity="0.35"></circle><circle r="0.5" cx="302" cy="353" opacity="0.35"></circle><circle r="0.5" cx="361" cy="297" opacity="0.35"></circle><circle r="0.5" cx="443" cy="298" opacity="0.35"></circle><circle r="0.5" cx="502" cy="355" opacity="0.36"></circle><circle r="1" cx="506" cy="438" opacity="0.36"></circle><circle r="1" cx="451" cy="501" opacity="0.36"></circle><circle r="1" cx="367" cy="509" opacity="0.36"></circle><circle r="1" cx="300" cy="456" opacity="0.36"></circle><circle r="1" cx="288" cy="372" opacity="0.37"></circle><circle r="1" cx="338" cy="302" opacity="0.37"></circle><circle r="1" cx="422" cy="285" opacity="0.37"></circle><circle r="1" cx="496" cy="332" opacity="0.37"></circle><circle r="1" cx="517" cy="417" opacity="0.37"></circle><circle r="1" cx="474" cy="493" opacity="0.37"></circle><circle r="1" cx="389" cy="519" opacity="0.38"></circle><circle r="1" cx="309" cy="479" opacity="0.38"></circle><circle r="1" cx="279" cy="395" opacity="0.38"></circle><circle r="1" cx="315" cy="312" opacity="0.38"></circle><circle r="1" cx="399" cy="277" opacity="0.38"></circle><circle r="1" cx="484" cy="310" opacity="0.39"></circle><circle r="1" cx="524" cy="392" opacity="0.39"></circle><circle r="1" cx="496" cy="481" opacity="0.39"></circle><circle r="1" cx="414" cy="525" opacity="0.39"></circle><circle r="1" cx="324" cy="501" opacity="0.39"></circle><circle r="1" cx="274" cy="421" opacity="0.39"></circle><circle r="1" cx="294" cy="328" opacity="0.40"></circle><circle r="1" cx="373" cy="274" opacity="0.40"></circle><circle r="1" cx="467" cy="289" opacity="0.40"></circle><circle r="1" cx="526" cy="366" opacity="0.40"></circle><circle r="1" cx="515" cy="462" opacity="0.40"></circle><circle r="1" cx="441" cy="525" opacity="0.41"></circle><circle r="1" cx="343" cy="520" opacity="0.41"></circle><circle r="1" cx="275" cy="448" opacity="0.41"></circle><circle r="1" cx="276" cy="348" opacity="0.41"></circle><circle r="1" cx="345" cy="277" opacity="0.41"></circle><circle r="1" cx="446" cy="272" opacity="0.41"></circle><circle r="1" cx="522" cy="339" opacity="0.42"></circle><circle r="1" cx="531" cy="440" opacity="0.42"></circle><circle r="1" cx="468" cy="520" opacity="0.42"></circle><circle r="1" cx="367" cy="535" opacity="0.42"></circle><circle r="1" cx="282" cy="475" opacity="0.42"></circle><circle r="1" cx="262" cy="373" opacity="0.43"></circle><circle r="1" cx="318" cy="285" opacity="0.43"></circle><circle r="1" cx="420" cy="260" opacity="0.43"></circle><circle r="1" cx="512" cy="311" opacity="0.43"></circle><circle r="1" cx="543" cy="413" opacity="0.43"></circle><circle r="1" cx="495" cy="508" opacity="0.44"></circle><circle r="1" cx="394" cy="545" opacity="0.44"></circle><circle r="1" cx="296" cy="502" opacity="0.44"></circle><circle r="1" cx="254" cy="402" opacity="0.44"></circle><circle r="1" cx="292" cy="300" opacity="0.44"></circle><circle r="1" cx="391" cy="252" opacity="0.44"></circle><circle r="1" cx="495" cy="286" opacity="0.45"></circle><circle r="1" cx="548" cy="383" opacity="0.45"></circle><circle r="1" cx="520" cy="490" opacity="0.45"></circle><circle r="1" cx="425" cy="549" opacity="0.45"></circle><circle r="1" cx="315" cy="526" opacity="0.45"></circle><circle r="1" cx="251" cy="433" opacity="0.46"></circle><circle r="1" cx="269" cy="321" opacity="0.46"></circle><circle r="1" cx="360" cy="251" opacity="0.46"></circle><circle r="1" cx="473" cy="264" opacity="0.46"></circle><circle r="1" cx="548" cy="352" opacity="0.46"></circle><circle r="1" cx="541" cy="467" opacity="0.46"></circle><circle r="1" cx="456" cy="547" opacity="0.47"></circle><circle r="1" cx="340" cy="546" opacity="0.47"></circle><circle r="1" cx="255" cy="464" opacity="0.47"></circle><circle r="1" cx="250" cy="347" opacity="0.47"></circle><circle r="1" cx="328" cy="257" opacity="0.47"></circle><circle r="1" cx="446" cy="246" opacity="0.48"></circle><circle r="1" cx="540" cy="320" opacity="0.48"></circle><circle r="1" cx="558" cy="439" opacity="0.48"></circle><circle r="1" cx="488" cy="537" opacity="0.48"></circle><circle r="1" cx="369" cy="561" opacity="0.48"></circle><circle r="1" cx="266" cy="496" opacity="0.48"></circle><circle r="1" cx="236" cy="377" opacity="0.49"></circle><circle r="1" cx="297" cy="270" opacity="0.49"></circle><circle r="1" cx="415" cy="234" opacity="0.49"></circle><circle r="1" cx="526" cy="289" opacity="0.49"></circle><circle r="1" cx="568" cy="406" opacity="0.49"></circle><circle r="1" cx="518" cy="521" opacity="0.50"></circle><circle r="1" cx="402" cy="570" opacity="0.50"></circle><circle r="1" cx="284" cy="525" opacity="0.50"></circle><circle r="1" cx="229" cy="411" opacity="0.50"></circle><circle r="1" cx="268" cy="290" opacity="0.50"></circle><circle r="1" cx="380" cy="228" opacity="0.50"></circle><circle r="1" cx="504" cy="261" opacity="0.51"></circle><circle r="1" cx="572" cy="371" opacity="0.51"></circle><circle r="1" cx="545" cy="498" opacity="0.51"></circle><circle r="1" cx="438" cy="572" opacity="0.51"></circle><circle r="1" cx="309" cy="551" opacity="0.51"></circle><circle r="1" cx="229" cy="447" opacity="0.52"></circle><circle r="1" cx="243" cy="316" opacity="0.52"></circle><circle r="1" cx="344" cy="230" opacity="0.52"></circle><circle r="1" cx="477" cy="237" opacity="0.52"></circle><circle r="1" cx="568" cy="335" opacity="0.52"></circle><circle r="1" cx="568" cy="469" opacity="0.52"></circle><circle r="1" cx="474" cy="566" opacity="0.53"></circle><circle r="1" cx="339" cy="572" opacity="0.53"></circle><circle r="1" cx="236" cy="483" opacity="0.53"></circle><circle r="1" cx="223" cy="347" opacity="0.53"></circle><circle r="1" cx="308" cy="239" opacity="0.53"></circle><circle r="1" cx="444" cy="219" opacity="0.54"></circle><circle r="1" cx="557" cy="299" opacity="0.54"></circle><circle r="1" cx="584" cy="435" opacity="0.54"></circle><circle r="1.5" cx="510" cy="553" opacity="0.54"></circle><circle r="1.5" cx="374" cy="587" opacity="0.54"></circle><circle r="1.5" cx="252" cy="518" opacity="0.54"></circle><circle r="1.5" cx="210" cy="384" opacity="0.55"></circle><circle r="1.5" cx="273" cy="257" opacity="0.55"></circle><circle r="1.5" cx="407" cy="208" opacity="0.55"></circle><circle r="1.5" cx="538" cy="265" opacity="0.55"></circle><circle r="1.5" cx="593" cy="397" opacity="0.55"></circle><circle r="1.5" cx="543" cy="532" opacity="0.56"></circle><circle r="1.5" cx="413" cy="595" opacity="0.56"></circle><circle r="1.5" cx="275" cy="551" opacity="0.56"></circle><circle r="1.5" cx="205" cy="423" opacity="0.56"></circle><circle r="1.5" cx="242" cy="282" opacity="0.56"></circle><circle r="1.5" cx="367" cy="205" opacity="0.57"></circle><circle r="1.5" cx="511" cy="235" opacity="0.57"></circle><circle r="1.5" cx="595" cy="357" opacity="0.57"></circle><circle r="1.5" cx="572" cy="503" opacity="0.57"></circle><circle r="1.5" cx="454" cy="594" opacity="0.57"></circle><circle r="1.5" cx="305" cy="578" opacity="0.57"></circle><circle r="1.5" cx="208" cy="464" opacity="0.58"></circle><circle r="1.5" cx="216" cy="313" opacity="0.58"></circle><circle r="1.5" cx="326" cy="210" opacity="0.58"></circle><circle r="1.5" cx="478" cy="210" opacity="0.58"></circle><circle r="1.5" cx="588" cy="316" opacity="0.58"></circle><circle r="1.5" cx="595" cy="468" opacity="0.59"></circle><circle r="1.5" cx="494" cy="584" opacity="0.59"></circle><circle r="1.5" cx="341" cy="599" opacity="0.59"></circle><circle r="1.5" cx="219" cy="504" opacity="0.59"></circle><circle r="1.5" cx="196" cy="351" opacity="0.59"></circle><circle r="1.5" cx="286" cy="224" opacity="0.59"></circle><circle r="1.5" cx="439" cy="193" opacity="0.60"></circle><circle r="1.5" cx="572" cy="276" opacity="0.60"></circle><circle r="1.5" cx="611" cy="429" opacity="0.60"></circle><circle r="1.5" cx="533" cy="566" opacity="0.60"></circle><circle r="1.5" cx="382" cy="613" opacity="0.60"></circle><circle r="1.5" cx="239" cy="543" opacity="0.61"></circle><circle r="1.5" cx="185" cy="393" opacity="0.61"></circle><circle r="1.5" cx="248" cy="246" opacity="0.61"></circle><circle r="1.5" cx="396" cy="183" opacity="0.61"></circle><circle r="1.5" cx="547" cy="240" opacity="0.61"></circle><circle r="1.5" cx="618" cy="385" opacity="0.61"></circle><circle r="1.5" cx="569" cy="540" opacity="0.62"></circle><circle r="1.5" cx="426" cy="619" opacity="0.62"></circle><circle r="1.5" cx="268" cy="577" opacity="0.62"></circle><circle r="1.5" cx="182" cy="437" opacity="0.62"></circle><circle r="1.5" cx="215" cy="276" opacity="0.62"></circle><circle r="1.5" cx="351" cy="182" opacity="0.63"></circle><circle r="1.5" cx="515" cy="208" opacity="0.63"></circle><circle r="1.5" cx="616" cy="340" opacity="0.63"></circle><circle r="1.5" cx="599" cy="506" opacity="0.63"></circle><circle r="1.5" cx="472" cy="615" opacity="0.63"></circle><circle r="1.5" cx="304" cy="606" opacity="0.63"></circle><circle r="1.5" cx="188" cy="483" opacity="0.64"></circle><circle r="1.5" cx="188" cy="314" opacity="0.64"></circle><circle r="1.5" cx="306" cy="191" opacity="0.64"></circle><circle r="1.5" cx="476" cy="183" opacity="0.64"></circle><circle r="1.5" cx="605" cy="295" opacity="0.64"></circle><circle r="1.5" cx="622" cy="465" opacity="0.65"></circle><circle r="1.5" cx="516" cy="601" opacity="0.65"></circle><circle r="1.5" cx="346" cy="627" opacity="0.65"></circle><circle r="1.5" cx="204" cy="527" opacity="0.65"></circle><circle r="1.5" cx="169" cy="357" opacity="0.65"></circle><circle r="1.5" cx="262" cy="209" opacity="0.65"></circle><circle r="1.5" cx="431" cy="166" opacity="0.66"></circle><circle r="1.5" cx="584" cy="251" opacity="0.66"></circle><circle r="1.5" cx="637" cy="419" opacity="0.66"></circle><circle r="1.5" cx="559" cy="578" opacity="0.66"></circle><circle r="1.5" cx="393" cy="639" opacity="0.66"></circle><circle r="1.5" cx="229" cy="569" opacity="0.67"></circle><circle r="1.5" cx="159" cy="405" opacity="0.67"></circle><circle r="1.5" cx="222" cy="237" opacity="0.67"></circle><circle r="1.5" cx="383" cy="158" opacity="0.67"></circle><circle r="1.5" cx="555" cy="213" opacity="0.67"></circle><circle r="1.5" cx="642" cy="371" opacity="0.67"></circle><circle r="1.5" cx="596" cy="546" opacity="0.68"></circle><circle r="1.5" cx="442" cy="642" opacity="0.68"></circle><circle r="1.5" cx="264" cy="605" opacity="0.68"></circle><circle r="1.5" cx="159" cy="454" opacity="0.68"></circle><circle r="1.5" cx="187" cy="273" opacity="0.68"></circle><circle r="1.5" cx="333" cy="161" opacity="0.69"></circle><circle r="1.5" cx="516" cy="180" opacity="0.69"></circle><circle r="1.5" cx="637" cy="320" opacity="0.69"></circle><circle r="1.5" cx="627" cy="506" opacity="0.69"></circle><circle r="1.5" cx="492" cy="634" opacity="0.69"></circle><circle r="1.5" cx="305" cy="634" opacity="0.70"></circle><circle r="1.5" cx="170" cy="504" opacity="0.70"></circle><circle r="1.5" cx="161" cy="317" opacity="0.70"></circle><circle r="1.5" cx="283" cy="174" opacity="0.70"></circle><circle r="1.5" cx="471" cy="155" opacity="0.70"></circle><circle r="1.5" cx="621" cy="271" opacity="0.70"></circle><circle r="1.5" cx="650" cy="459" opacity="0.71"></circle><circle r="1.5" cx="541" cy="615" opacity="0.71"></circle><circle r="1.5" cx="353" cy="654" opacity="0.71"></circle><circle r="1.5" cx="191" cy="552" opacity="0.71"></circle><circle r="1.5" cx="143" cy="366" opacity="0.71"></circle><circle r="1.5" cx="236" cy="198" opacity="0.72"></circle><circle r="1.5" cx="421" cy="140" opacity="0.72"></circle><circle r="1.5" cx="595" cy="225" opacity="0.72"></circle><circle r="1.5" cx="663" cy="408" opacity="0.72"></circle><circle r="1.5" cx="586" cy="587" opacity="0.72"></circle><circle r="1.5" cx="406" cy="664" opacity="0.72"></circle><circle r="2" cx="222" cy="596" opacity="0.73"></circle><circle r="2" cx="135" cy="419" opacity="0.73"></circle><circle r="2" cx="194" cy="231" opacity="0.73"></circle><circle r="2" cx="367" cy="135" opacity="0.73"></circle><circle r="2" cx="559" cy="185" opacity="0.73"></circle><circle r="2" cx="665" cy="354" opacity="0.74"></circle><circle r="2" cx="624" cy="549" opacity="0.74"></circle><circle r="2" cx="460" cy="663" opacity="0.74"></circle><circle r="2" cx="262" cy="633" opacity="0.74"></circle><circle r="2" cx="138" cy="474" opacity="0.74"></circle><circle r="2" cx="159" cy="273" opacity="0.74"></circle><circle r="2" cx="312" cy="141" opacity="0.75"></circle><circle r="2" cx="515" cy="151" opacity="0.75"></circle><circle r="2" cx="656" cy="299" opacity="0.75"></circle><circle r="2" cx="656" cy="503" opacity="0.75"></circle><circle r="2" cx="515" cy="651" opacity="0.75"></circle><circle r="2" cx="310" cy="662" opacity="0.76"></circle><circle r="2" cx="153" cy="528" opacity="0.76"></circle><circle r="2" cx="132" cy="323" opacity="0.76"></circle><circle r="2" cx="259" cy="159" opacity="0.76"></circle><circle r="2" cx="464" cy="127" opacity="0.76"></circle><circle r="2" cx="635" cy="246" opacity="0.76"></circle><circle r="2" cx="677" cy="450" opacity="0.77"></circle><circle r="2" cx="567" cy="628" opacity="0.77"></circle><circle r="2" cx="364" cy="681" opacity="0.77"></circle><circle r="2" cx="180" cy="579" opacity="0.77"></circle><circle r="2" cx="116" cy="378" opacity="0.77"></circle><circle r="2" cx="209" cy="188" opacity="0.78"></circle><circle r="2" cx="408" cy="114" opacity="0.78"></circle><circle r="2" cx="603" cy="198" opacity="0.78"></circle><circle r="2" cx="688" cy="393" opacity="0.78"></circle><circle r="2" cx="614" cy="594" opacity="0.78"></circle><circle r="2" cx="421" cy="688" opacity="0.78"></circle><circle r="2" cx="216" cy="624" opacity="0.79"></circle><circle r="2" cx="112" cy="436" opacity="0.79"></circle><circle r="2" cx="165" cy="227" opacity="0.79"></circle><circle r="2" cx="349" cy="112" opacity="0.79"></circle><circle r="2" cx="562" cy="156" opacity="0.79"></circle><circle r="2" cx="686" cy="334" opacity="0.80"></circle><circle r="2" cx="654" cy="550" opacity="0.80"></circle><circle r="2" cx="481" cy="684" opacity="0.80"></circle><circle r="2" cx="263" cy="662" opacity="0.80"></circle><circle r="2" cx="119" cy="496" opacity="0.80"></circle><circle r="2" cx="130" cy="275" opacity="0.80"></circle><circle r="2" cx="290" cy="123" opacity="0.81"></circle><circle r="2" cx="511" cy="122" opacity="0.81"></circle><circle r="2" cx="673" cy="275" opacity="0.81"></circle><circle r="2" cx="684" cy="498" opacity="0.81"></circle><circle r="2" cx="539" cy="667" opacity="0.81"></circle><circle r="2" cx="317" cy="690" opacity="0.82"></circle><circle r="2" cx="139" cy="553" opacity="0.82"></circle><circle r="2" cx="104" cy="331" opacity="0.82"></circle><circle r="2" cx="233" cy="146" opacity="0.82"></circle><circle r="2" cx="454" cy="100" opacity="0.82"></circle><circle r="2" cx="647" cy="219" opacity="0.83"></circle><circle r="2" cx="704" cy="439" opacity="0.83"></circle><circle r="2" cx="594" cy="638" opacity="0.83"></circle><circle r="2" cx="377" cy="707" opacity="0.83"></circle><circle r="2" cx="171" cy="607" opacity="0.83"></circle><circle r="2" cx="90" cy="392" opacity="0.83"></circle><circle r="2" cx="180" cy="180" opacity="0.84"></circle><circle r="2" cx="392" cy="89" opacity="0.84"></circle><circle r="2" cx="609" cy="168" opacity="0.84"></circle><circle r="2" cx="712" cy="376" opacity="0.84"></circle><circle r="2" cx="643" cy="598" opacity="0.84"></circle><circle r="2" cx="440" cy="712" opacity="0.85"></circle><circle r="2" cx="214" cy="654" opacity="0.85"></circle><circle r="2" cx="89" cy="456" opacity="0.85"></circle><circle r="2" cx="136" cy="226" opacity="0.85"></circle><circle r="2" cx="328" cy="91" opacity="0.85"></circle><circle r="2" cx="561" cy="126" opacity="0.85"></circle><circle r="2" cx="707" cy="312" opacity="0.86"></circle><circle r="2" cx="683" cy="548" opacity="0.86"></circle><circle r="2" cx="504" cy="703" opacity="0.86"></circle><circle r="2" cx="266" cy="692" opacity="0.86"></circle><circle r="2" cx="101" cy="520" opacity="0.86"></circle><circle r="2" cx="100" cy="281" opacity="0.87"></circle><circle r="2" cx="265" cy="106" opacity="0.87"></circle><circle r="2" cx="505" cy="93" opacity="0.87"></circle><circle r="2" cx="688" cy="249" opacity="0.87"></circle><circle r="2" cx="713" cy="489" opacity="0.87"></circle><circle r="2" cx="566" cy="681" opacity="0.87"></circle><circle r="2" cx="326" cy="719" opacity="0.88"></circle><circle r="2" cx="126" cy="581" opacity="0.88"></circle><circle r="2" cx="76" cy="342" opacity="0.88"></circle><circle r="2" cx="205" cy="135" opacity="0.88"></circle><circle r="2" cx="441" cy="72" opacity="0.88"></circle><circle r="2" cx="656" cy="190" opacity="0.89"></circle><circle r="2" cx="731" cy="425" opacity="0.89"></circle><circle r="2" cx="623" cy="646" opacity="0.89"></circle><circle r="2" cx="392" cy="733" opacity="0.89"></circle><circle r="2" cx="164" cy="637" opacity="0.89"></circle><circle r="2" cx="65" cy="409" opacity="0.89"></circle><circle r="2" cx="151" cy="176" opacity="0.90"></circle><circle r="2" cx="374" cy="65" opacity="0.90"></circle><circle r="2" cx="612" cy="138" opacity="0.90"></circle><circle r="2" cx="735" cy="357" opacity="0.90"></circle><circle r="2" cx="673" cy="600" opacity="0.90"></circle><circle r="2" cx="461" cy="734" opacity="0.91"></circle><circle r="2" cx="213" cy="684" opacity="0.91"></circle><circle r="2.5" cx="68" cy="478" opacity="0.91"></circle><circle r="2.5" cx="105" cy="227" opacity="0.91"></circle><circle r="2.5" cx="305" cy="71" opacity="0.91"></circle><circle r="2.5" cx="558" cy="95" opacity="0.91"></circle><circle r="2.5" cx="725" cy="288" opacity="0.92"></circle><circle r="2.5" cx="714" cy="543" opacity="0.92"></circle><circle r="2.5" cx="529" cy="720" opacity="0.92"></circle><circle r="2.5" cx="272" cy="722" opacity="0.92"></circle><circle r="2.5" cx="85" cy="546" opacity="0.92"></circle><circle r="2.5" cx="71" cy="288" opacity="0.93"></circle><circle r="2.5" cx="238" cy="92" opacity="0.93"></circle><circle r="2.5" cx="495" cy="64" opacity="0.93"></circle><circle r="2.5" cx="701" cy="221" opacity="0.93"></circle><circle r="2.5" cx="742" cy="478" opacity="0.93"></circle><circle r="2.5" cx="594" cy="693" opacity="0.93"></circle><circle r="2.5" cx="339" cy="747" opacity="0.94"></circle><circle r="2.5" cx="116" cy="610" opacity="0.94"></circle><circle r="2.5" cx="49" cy="357" opacity="0.94"></circle><circle r="2.5" cx="175" cy="126" opacity="0.94"></circle><circle r="2.5" cx="426" cy="46" opacity="0.94"></circle><circle r="2.5" cx="663" cy="160" opacity="0.95"></circle><circle r="2.5" cx="757" cy="408" opacity="0.95"></circle><circle r="2.5" cx="654" cy="652" opacity="0.95"></circle><circle r="2.5" cx="410" cy="758" opacity="0.95"></circle><circle r="2.5" cx="160" cy="667" opacity="0.95"></circle><circle r="2.5" cx="41" cy="429" opacity="0.96"></circle><circle r="2.5" cx="120" cy="173" opacity="0.96"></circle><circle r="2.5" cx="353" cy="42" opacity="0.96"></circle><circle r="2.5" cx="613" cy="107" opacity="0.96"></circle><circle r="2.5" cx="757" cy="334" opacity="0.96"></circle><circle r="2.5" cx="705" cy="599" opacity="0.96"></circle><circle r="2.5" cx="484" cy="755" opacity="0.97"></circle><circle r="2.5" cx="216" cy="716" opacity="0.97"></circle><circle r="2.5" cx="49" cy="502" opacity="0.97"></circle><circle r="2.5" cx="74" cy="232" opacity="0.97"></circle><circle r="2.5" cx="280" cy="53" opacity="0.97"></circle><circle r="2.5" cx="552" cy="65" opacity="0.98"></circle><circle r="2.5" cx="742" cy="261" opacity="0.98"></circle><circle r="2.5" cx="744" cy="536" opacity="0.98"></circle><circle r="2.5" cx="556" cy="736" opacity="0.98"></circle><circle r="2.5" cx="282" cy="752" opacity="0.98"></circle><circle r="2.5" cx="71" cy="574" opacity="0.98"></circle><circle r="2.5" cx="41" cy="299" opacity="0.99"></circle><circle r="2.5" cx="209" cy="79" opacity="0.99"></circle><circle r="2.5" cx="483" cy="35" opacity="0.99"></circle><circle r="2.5" cx="712" cy="192" opacity="0.99"></circle><circle r="2.5" cx="770" cy="464" opacity="0.99"></circle><circle r="2.5" cx="625" cy="702" opacity="1.00"></circle><circle r="2.5" cx="354" cy="775" opacity="1.00"></circle><circle r="2.5" cx="108" cy="641" opacity="1.00"></circle></g></svg>